G04 #@! TF.GenerationSoftware,KiCad,Pcbnew,(5.1.4)-1*
G04 #@! TF.CreationDate,2020-05-29T20:32:19+02:00*
G04 #@! TF.ProjectId,MicroChip PICKit 3 Demo Board,4d696372-6f43-4686-9970-205049434b69,v01*
G04 #@! TF.SameCoordinates,Original*
G04 #@! TF.FileFunction,Copper,L1,Top*
G04 #@! TF.FilePolarity,Positive*
%FSLAX46Y46*%
G04 Gerber Fmt 4.6, Leading zero omitted, Abs format (unit mm)*
G04 Created by KiCad (PCBNEW (5.1.4)-1) date 2020-05-29 20:32:19*
%MOMM*%
%LPD*%
G04 APERTURE LIST*
%ADD10C,0.300000*%
%ADD11O,1.600000X1.600000*%
%ADD12C,1.600000*%
%ADD13C,1.800000*%
%ADD14R,1.800000X1.800000*%
%ADD15R,1.600000X1.600000*%
%ADD16R,1.700000X1.700000*%
%ADD17O,1.700000X1.700000*%
%ADD18C,1.440000*%
%ADD19C,2.000000*%
%ADD20R,2.400000X1.600000*%
%ADD21O,2.400000X1.600000*%
%ADD22C,0.800000*%
%ADD23C,0.250000*%
G04 APERTURE END LIST*
D10*
X151594285Y-133028571D02*
X151951428Y-134028571D01*
X152308571Y-133028571D01*
X153165714Y-132528571D02*
X153308571Y-132528571D01*
X153451428Y-132600000D01*
X153522857Y-132671428D01*
X153594285Y-132814285D01*
X153665714Y-133100000D01*
X153665714Y-133457142D01*
X153594285Y-133742857D01*
X153522857Y-133885714D01*
X153451428Y-133957142D01*
X153308571Y-134028571D01*
X153165714Y-134028571D01*
X153022857Y-133957142D01*
X152951428Y-133885714D01*
X152880000Y-133742857D01*
X152808571Y-133457142D01*
X152808571Y-133100000D01*
X152880000Y-132814285D01*
X152951428Y-132671428D01*
X153022857Y-132600000D01*
X153165714Y-132528571D01*
X155094285Y-134028571D02*
X154237142Y-134028571D01*
X154665714Y-134028571D02*
X154665714Y-132528571D01*
X154522857Y-132742857D01*
X154380000Y-132885714D01*
X154237142Y-132957142D01*
D11*
X107188000Y-129540000D03*
D12*
X107188000Y-119380000D03*
D11*
X107442000Y-116078000D03*
D12*
X97282000Y-116078000D03*
D11*
X99060000Y-112268000D03*
D12*
X109220000Y-112268000D03*
D11*
X117348000Y-129540000D03*
D12*
X117348000Y-119380000D03*
D11*
X127508000Y-129540000D03*
D12*
X127508000Y-119380000D03*
D11*
X137668000Y-129540000D03*
D12*
X137668000Y-119380000D03*
D11*
X152400000Y-104140000D03*
D12*
X152400000Y-114300000D03*
D13*
X111760000Y-127000000D03*
D14*
X111760000Y-129540000D03*
D13*
X121920000Y-127000000D03*
D14*
X121920000Y-129540000D03*
D13*
X132080000Y-127000000D03*
D14*
X132080000Y-129540000D03*
D13*
X142240000Y-127000000D03*
D14*
X142240000Y-129540000D03*
D12*
X111760000Y-45680000D03*
D15*
X111760000Y-43180000D03*
D12*
X149900000Y-118745000D03*
D15*
X152400000Y-118745000D03*
D16*
X152400000Y-41402000D03*
D17*
X152400000Y-43942000D03*
X152400000Y-46482000D03*
X152400000Y-49022000D03*
X152400000Y-51562000D03*
X152400000Y-54102000D03*
X152400000Y-56642000D03*
X152400000Y-59182000D03*
X152400000Y-61722000D03*
X152400000Y-64262000D03*
X152400000Y-66802000D03*
X152400000Y-69342000D03*
X152400000Y-71882000D03*
X152400000Y-74422000D03*
D16*
X101600000Y-43180000D03*
D17*
X101600000Y-45720000D03*
X111760000Y-119380000D03*
D16*
X111760000Y-116840000D03*
X121920000Y-116840000D03*
D17*
X121920000Y-119380000D03*
X132080000Y-119380000D03*
D16*
X132080000Y-116840000D03*
X142240000Y-116840000D03*
D17*
X142240000Y-119380000D03*
X96520000Y-81280000D03*
D16*
X96520000Y-78740000D03*
X120650000Y-40640000D03*
D17*
X123190000Y-40640000D03*
X125730000Y-40640000D03*
X128270000Y-40640000D03*
X130810000Y-40640000D03*
X133350000Y-40640000D03*
D18*
X148590000Y-125476000D03*
X151130000Y-128016000D03*
X153670000Y-125476000D03*
D19*
X97608000Y-122428000D03*
X102108000Y-122428000D03*
X97608000Y-128928000D03*
X102108000Y-128928000D03*
D20*
X123190000Y-51689000D03*
D21*
X130810000Y-74549000D03*
X123190000Y-54229000D03*
X130810000Y-72009000D03*
X123190000Y-56769000D03*
X130810000Y-69469000D03*
X123190000Y-59309000D03*
X130810000Y-66929000D03*
X123190000Y-61849000D03*
X130810000Y-64389000D03*
X123190000Y-64389000D03*
X130810000Y-61849000D03*
X123190000Y-66929000D03*
X130810000Y-59309000D03*
X123190000Y-69469000D03*
X130810000Y-56769000D03*
X123190000Y-72009000D03*
X130810000Y-54229000D03*
X123190000Y-74549000D03*
X130810000Y-51689000D03*
D12*
X106680000Y-83820000D03*
X109220000Y-83820000D03*
X111760000Y-83820000D03*
X114300000Y-83820000D03*
X116840000Y-83820000D03*
X119380000Y-83820000D03*
X121920000Y-83820000D03*
X124460000Y-83820000D03*
X106680000Y-86360000D03*
X109220000Y-86360000D03*
X111760000Y-86360000D03*
X114300000Y-86360000D03*
X116840000Y-86360000D03*
X119380000Y-86360000D03*
X121920000Y-86360000D03*
X124460000Y-86360000D03*
X106680000Y-88900000D03*
X109220000Y-88900000D03*
X111760000Y-88900000D03*
X114300000Y-88900000D03*
X116840000Y-88900000D03*
X119380000Y-88900000D03*
X121920000Y-88900000D03*
X124460000Y-88900000D03*
X106680000Y-91440000D03*
X109220000Y-91440000D03*
X111760000Y-91440000D03*
X114300000Y-91440000D03*
X116840000Y-91440000D03*
X119380000Y-91440000D03*
X121920000Y-91440000D03*
X124460000Y-91440000D03*
X106680000Y-93980000D03*
X109220000Y-93980000D03*
X111760000Y-93980000D03*
X114300000Y-93980000D03*
X116840000Y-93980000D03*
X119380000Y-93980000D03*
X121920000Y-93980000D03*
X124460000Y-93980000D03*
X106680000Y-96520000D03*
X109220000Y-96520000D03*
X111760000Y-96520000D03*
X114300000Y-96520000D03*
X116840000Y-96520000D03*
X119380000Y-96520000D03*
X121920000Y-96520000D03*
X124460000Y-96520000D03*
X106680000Y-99060000D03*
X109220000Y-99060000D03*
X111760000Y-99060000D03*
X114300000Y-99060000D03*
X116840000Y-99060000D03*
X119380000Y-99060000D03*
X121920000Y-99060000D03*
X124460000Y-99060000D03*
X106680000Y-101600000D03*
X109220000Y-101600000D03*
X111760000Y-101600000D03*
X114300000Y-101600000D03*
X116840000Y-101600000D03*
X119380000Y-101600000D03*
X121920000Y-101600000D03*
X124460000Y-101600000D03*
X106680000Y-104140000D03*
X109220000Y-104140000D03*
X111760000Y-104140000D03*
X114300000Y-104140000D03*
X116840000Y-104140000D03*
X119380000Y-104140000D03*
X121920000Y-104140000D03*
X124460000Y-104140000D03*
X106680000Y-106680000D03*
X109220000Y-106680000D03*
X111760000Y-106680000D03*
X114300000Y-106680000D03*
X116840000Y-106680000D03*
X119380000Y-106680000D03*
X121920000Y-106680000D03*
X124460000Y-106680000D03*
X106680000Y-109220000D03*
X109220000Y-109220000D03*
X111760000Y-109220000D03*
X114300000Y-109220000D03*
X116840000Y-109220000D03*
X119380000Y-109220000D03*
X121920000Y-109220000D03*
X124460000Y-109220000D03*
X137160000Y-109220000D03*
X134620000Y-106680000D03*
X137160000Y-104140000D03*
X132080000Y-109220000D03*
X144780000Y-106680000D03*
X134620000Y-109220000D03*
X137160000Y-106680000D03*
X144780000Y-109220000D03*
X144780000Y-104140000D03*
X129540000Y-106680000D03*
X139700000Y-109220000D03*
X147320000Y-109220000D03*
X147320000Y-106680000D03*
X139700000Y-104140000D03*
X142240000Y-109220000D03*
X129540000Y-109220000D03*
X132080000Y-106680000D03*
X142240000Y-106680000D03*
X139700000Y-106680000D03*
X147320000Y-104140000D03*
X142240000Y-104140000D03*
X132080000Y-86360000D03*
X147320000Y-86360000D03*
X129540000Y-83820000D03*
X142240000Y-88900000D03*
X144780000Y-88900000D03*
X134620000Y-83820000D03*
X139700000Y-83820000D03*
X132080000Y-91440000D03*
X139700000Y-86360000D03*
X129540000Y-88900000D03*
X139700000Y-91440000D03*
X144780000Y-91440000D03*
X147320000Y-83820000D03*
X147320000Y-91440000D03*
X134620000Y-86360000D03*
X129540000Y-93980000D03*
X132080000Y-93980000D03*
X142240000Y-86360000D03*
X134620000Y-93980000D03*
X137160000Y-93980000D03*
X142240000Y-93980000D03*
X144780000Y-93980000D03*
X144780000Y-86360000D03*
X147320000Y-93980000D03*
X137160000Y-86360000D03*
X139700000Y-88900000D03*
X129540000Y-91440000D03*
X137160000Y-91440000D03*
X129540000Y-96520000D03*
X132080000Y-96520000D03*
X134620000Y-96520000D03*
X142240000Y-83820000D03*
X144780000Y-83820000D03*
X134620000Y-91440000D03*
X142240000Y-91440000D03*
X139700000Y-93980000D03*
X134620000Y-88900000D03*
X132080000Y-88900000D03*
X137160000Y-88900000D03*
X147320000Y-88900000D03*
X132080000Y-83820000D03*
X137160000Y-83820000D03*
X129540000Y-86360000D03*
X144780000Y-99060000D03*
X129540000Y-101600000D03*
X132080000Y-101600000D03*
X142240000Y-101600000D03*
X147320000Y-99060000D03*
X144780000Y-101600000D03*
X147320000Y-101600000D03*
X132080000Y-104140000D03*
X137160000Y-101600000D03*
X142240000Y-96520000D03*
X134620000Y-104140000D03*
X134620000Y-101600000D03*
X129540000Y-104140000D03*
X129540000Y-99060000D03*
X139700000Y-101600000D03*
X144780000Y-96520000D03*
X132080000Y-99060000D03*
X134620000Y-99060000D03*
X137160000Y-99060000D03*
X139700000Y-99060000D03*
X137160000Y-96520000D03*
X139700000Y-96520000D03*
X147320000Y-96520000D03*
X142240000Y-99060000D03*
X104140000Y-106680000D03*
X104140000Y-109220000D03*
X104140000Y-83820000D03*
X104140000Y-88900000D03*
X104140000Y-93980000D03*
X104140000Y-91440000D03*
X104140000Y-96520000D03*
X104140000Y-86360000D03*
X104140000Y-101600000D03*
X104140000Y-104140000D03*
X104140000Y-99060000D03*
X101600000Y-106680000D03*
X101600000Y-109220000D03*
X101600000Y-83820000D03*
X101600000Y-88900000D03*
X101600000Y-93980000D03*
X101600000Y-91440000D03*
X101600000Y-96520000D03*
X101600000Y-86360000D03*
X101600000Y-101600000D03*
X101600000Y-104140000D03*
X101600000Y-99060000D03*
X129540000Y-81280000D03*
X132080000Y-81280000D03*
X134620000Y-81280000D03*
X137160000Y-81280000D03*
X139700000Y-81280000D03*
X142240000Y-81280000D03*
X144780000Y-81280000D03*
X147320000Y-81280000D03*
X137160000Y-51689000D03*
X139700000Y-51689000D03*
X134620000Y-51689000D03*
X114300000Y-51689000D03*
X119380000Y-51689000D03*
X116840000Y-51689000D03*
X124460000Y-81280000D03*
X121920000Y-81280000D03*
X119380000Y-81280000D03*
X116840000Y-81280000D03*
X114300000Y-81280000D03*
X111760000Y-81280000D03*
X109220000Y-81280000D03*
X106680000Y-81280000D03*
X104140000Y-81280000D03*
X101600000Y-81280000D03*
D22*
X123190000Y-42672000D03*
X96520000Y-52070000D03*
X144780000Y-71882000D03*
X144780000Y-78486000D03*
D12*
X116840000Y-54229000D03*
X114300000Y-54229000D03*
X119380000Y-54229000D03*
D22*
X135890000Y-41402000D03*
X135890000Y-52832000D03*
D12*
X114300000Y-56769000D03*
X116840000Y-56769000D03*
X119380000Y-56769000D03*
D22*
X133350000Y-49530000D03*
X124968000Y-49530000D03*
X133350000Y-43942000D03*
X125476000Y-79248000D03*
X152400000Y-79502000D03*
D12*
X119380000Y-59309000D03*
X114300000Y-59309000D03*
X116840000Y-59309000D03*
D22*
X121664990Y-46483010D03*
D12*
X119380000Y-61849000D03*
X116840000Y-61849000D03*
X114300000Y-61849000D03*
D22*
X142494000Y-60452000D03*
D12*
X114300000Y-64389000D03*
X116840000Y-64389000D03*
X119380000Y-64389000D03*
D22*
X143637000Y-63246000D03*
D12*
X116840000Y-66929000D03*
X114300000Y-66929000D03*
X119380000Y-66929000D03*
D22*
X128270000Y-68834000D03*
X144653000Y-68453000D03*
D12*
X139700000Y-54229000D03*
X137160000Y-54229000D03*
X134620000Y-54229000D03*
X134620000Y-56769000D03*
X139700000Y-56769000D03*
X137160000Y-56769000D03*
X139700000Y-59309000D03*
X137160000Y-59309000D03*
X134620000Y-59309000D03*
D22*
X99060000Y-60452000D03*
D12*
X134620000Y-61849000D03*
X137160000Y-61849000D03*
X139700000Y-61849000D03*
X134620000Y-64389000D03*
X139700000Y-64389000D03*
X137160000Y-64389000D03*
X134620000Y-66929000D03*
X137160000Y-66929000D03*
X139700000Y-66929000D03*
X134620000Y-74549000D03*
X137160000Y-74549000D03*
X139700000Y-74549000D03*
X134620000Y-72009000D03*
X139700000Y-72009000D03*
X137160000Y-72009000D03*
X139700000Y-69469000D03*
X134620000Y-69469000D03*
X137160000Y-69469000D03*
X119380000Y-69469000D03*
X114300000Y-69469000D03*
X116840000Y-69469000D03*
X116840000Y-72009000D03*
X114300000Y-72009000D03*
X119380000Y-72009000D03*
X119380000Y-74549000D03*
X114300000Y-74549000D03*
X116840000Y-74549000D03*
D23*
X123190000Y-51689000D02*
X123190000Y-42672000D01*
X144780000Y-71882000D02*
X144780000Y-78486000D01*
X96520000Y-52070000D02*
X96520000Y-78740000D01*
X151130000Y-126997767D02*
X151130000Y-128016000D01*
X152400000Y-114300000D02*
X152400000Y-118745000D01*
X152400000Y-125727767D02*
X151130000Y-126997767D01*
X152400000Y-118745000D02*
X152400000Y-125727767D01*
X107188000Y-129540000D02*
X111760000Y-129540000D01*
X111760000Y-120582081D02*
X111760000Y-127000000D01*
X111760000Y-119380000D02*
X111760000Y-120582081D01*
X121920000Y-120582081D02*
X121920000Y-127000000D01*
X121920000Y-119380000D02*
X121920000Y-120582081D01*
X118479370Y-129540000D02*
X121920000Y-129540000D01*
X117348000Y-129540000D02*
X118479370Y-129540000D01*
X127508000Y-129540000D02*
X132080000Y-129540000D01*
X132080000Y-119380000D02*
X132080000Y-127000000D01*
X142240000Y-119380000D02*
X142240000Y-127000000D01*
X137668000Y-129540000D02*
X142240000Y-129540000D01*
X135890000Y-41402000D02*
X135890000Y-52832000D01*
X123590000Y-56769000D02*
X123190000Y-56769000D01*
X124968000Y-55391000D02*
X123590000Y-56769000D01*
X124968000Y-49530000D02*
X124968000Y-55391000D01*
X133350000Y-40640000D02*
X133350000Y-43942000D01*
X133350000Y-43942000D02*
X133350000Y-49530000D01*
X123590000Y-56769000D02*
X125476000Y-58655000D01*
X125476000Y-58655000D02*
X125476000Y-79248000D01*
X152400000Y-79502000D02*
X152400000Y-104140000D01*
X122790000Y-59309000D02*
X123190000Y-59309000D01*
X121664990Y-58183990D02*
X122790000Y-59309000D01*
X120650000Y-41740000D02*
X121664990Y-42754990D01*
X120650000Y-40640000D02*
X120650000Y-41740000D01*
X121664990Y-42754990D02*
X121664990Y-46483010D01*
X121664990Y-46483010D02*
X121664990Y-58183990D01*
X147320000Y-49022000D02*
X152400000Y-49022000D01*
X142494000Y-60452000D02*
X142494000Y-53848000D01*
X142494000Y-53848000D02*
X147320000Y-49022000D01*
X146117919Y-51562000D02*
X152400000Y-51562000D01*
X143637000Y-63246000D02*
X143637000Y-54042919D01*
X143637000Y-54042919D02*
X146117919Y-51562000D01*
X142240000Y-115740000D02*
X139700000Y-113200000D01*
X142240000Y-116840000D02*
X142240000Y-115740000D01*
X139700000Y-113200000D02*
X138006000Y-111506000D01*
X138006000Y-111506000D02*
X128905000Y-111506000D01*
X128905000Y-111506000D02*
X128270000Y-110871000D01*
X128270000Y-110871000D02*
X128270000Y-68834000D01*
X145415000Y-54102000D02*
X152400000Y-54102000D01*
X144653000Y-68453000D02*
X144653000Y-54864000D01*
X144653000Y-54864000D02*
X145415000Y-54102000D01*
X130410000Y-54229000D02*
X130810000Y-54229000D01*
X128270000Y-52089000D02*
X130410000Y-54229000D01*
X128270000Y-40640000D02*
X128270000Y-52089000D01*
X131210000Y-56769000D02*
X130810000Y-56769000D01*
X132335010Y-55643990D02*
X131210000Y-56769000D01*
X132335010Y-51223006D02*
X132335010Y-55643990D01*
X130810000Y-49697996D02*
X132335010Y-51223006D01*
X130810000Y-40640000D02*
X130810000Y-49697996D01*
X99060000Y-112268000D02*
X99060000Y-60452000D01*
X127127000Y-61849000D02*
X130810000Y-61849000D01*
X111760000Y-111379000D02*
X112522000Y-110617000D01*
X111760000Y-116840000D02*
X111760000Y-111379000D01*
X112522000Y-110617000D02*
X124728002Y-110617000D01*
X124728002Y-110617000D02*
X126238000Y-109107002D01*
X126238000Y-109107002D02*
X126238000Y-62738000D01*
X126238000Y-62738000D02*
X127127000Y-61849000D01*
X127635000Y-64389000D02*
X130810000Y-64389000D01*
X126873000Y-65151000D02*
X127635000Y-64389000D01*
X126873000Y-109108412D02*
X126873000Y-65151000D01*
X121920000Y-116840000D02*
X121920000Y-114061412D01*
X121920000Y-114061412D02*
X126873000Y-109108412D01*
X127889000Y-66929000D02*
X130810000Y-66929000D01*
X127508000Y-67310000D02*
X127889000Y-66929000D01*
X127508000Y-111760000D02*
X127508000Y-67310000D01*
X132080000Y-116840000D02*
X132080000Y-116332000D01*
X132080000Y-116332000D02*
X127508000Y-111760000D01*
X96520000Y-115316000D02*
X97282000Y-116078000D01*
X96520000Y-81280000D02*
X96520000Y-115316000D01*
X97608000Y-127513787D02*
X97608000Y-122428000D01*
X97608000Y-128928000D02*
X97608000Y-127513787D01*
X98044000Y-122428000D02*
X97608000Y-122428000D01*
X109220000Y-114300000D02*
X109220000Y-112268000D01*
X107442000Y-116078000D02*
X109220000Y-114300000D01*
X99568000Y-122428000D02*
X97608000Y-122428000D01*
X107442000Y-116078000D02*
X105918000Y-116078000D01*
X105918000Y-116078000D02*
X99568000Y-122428000D01*
M02*
