M48
; DRILL file {KiCad (5.1.4)-1} date 29/05/2020 20:32:14
; FORMAT={-:-/ absolute / inch / decimal}
; #@! TF.CreationDate,2020-05-29T20:32:14+02:00
; #@! TF.GenerationSoftware,Kicad,Pcbnew,(5.1.4)-1
; #@! TF.FileFunction,Plated,1,2,PTH
FMAT,2
INCH
T1C0.0157
T2C0.0315
T3C0.0354
T4C0.0394
T5C0.0433
%
G90
G05
T1
X3.8Y-2.05
X3.9Y-2.38
X4.79Y-1.83
X4.85Y-1.68
X4.92Y-1.95
X4.94Y-3.12
X5.05Y-2.71
X5.25Y-1.73
X5.25Y-1.95
X5.35Y-1.63
X5.35Y-2.08
X5.61Y-2.38
X5.655Y-2.49
X5.695Y-2.695
X5.7Y-2.83
X5.7Y-3.09
X6.0Y-3.13
T2
X3.83Y-4.57
X4.23Y-4.57
X5.42Y-4.7
X5.42Y-5.1
X5.9016Y-4.675
X6.0Y-4.675
X6.0Y-4.1
X6.0Y-4.5
X5.02Y-4.7
X5.02Y-5.1
X4.62Y-4.7
X4.62Y-5.1
X4.85Y-2.035
X4.85Y-2.135
X4.85Y-2.235
X4.85Y-2.335
X4.85Y-2.435
X4.85Y-2.535
X4.85Y-2.635
X4.85Y-2.735
X4.85Y-2.835
X4.85Y-2.935
X5.15Y-2.035
X5.15Y-2.135
X5.15Y-2.235
X5.15Y-2.335
X5.15Y-2.435
X5.15Y-2.535
X5.15Y-2.635
X5.15Y-2.735
X5.15Y-2.835
X5.15Y-2.935
X4.4Y-1.7
X4.4Y-1.7984
X5.85Y-4.94
X5.95Y-5.04
X6.05Y-4.94
X3.9Y-4.42
X4.3Y-4.42
X4.22Y-4.7
X4.22Y-5.1
T3
X5.2Y-5.0
X5.2Y-5.1
X4.4Y-5.0
X4.4Y-5.1
X4.8Y-5.0
X4.8Y-5.1
X5.6Y-5.0
X5.6Y-5.1
T4
X4.0Y-3.2
X4.0Y-3.3
X4.0Y-3.4
X4.0Y-3.5
X4.0Y-3.6
X4.0Y-3.7
X4.0Y-3.8
X4.0Y-3.9
X4.0Y-4.0
X4.0Y-4.1
X4.0Y-4.2
X4.0Y-4.3
X4.1Y-3.2
X4.1Y-3.3
X4.1Y-3.4
X4.1Y-3.5
X4.1Y-3.6
X4.1Y-3.7
X4.1Y-3.8
X4.1Y-3.9
X4.1Y-4.0
X4.1Y-4.1
X4.1Y-4.2
X4.1Y-4.3
X4.2Y-3.2
X4.2Y-3.3
X4.2Y-3.4
X4.2Y-3.5
X4.2Y-3.6
X4.2Y-3.7
X4.2Y-3.8
X4.2Y-3.9
X4.2Y-4.0
X4.2Y-4.1
X4.2Y-4.2
X4.2Y-4.3
X4.3Y-3.2
X4.3Y-3.3
X4.3Y-3.4
X4.3Y-3.5
X4.3Y-3.6
X4.3Y-3.7
X4.3Y-3.8
X4.3Y-3.9
X4.3Y-4.0
X4.3Y-4.1
X4.3Y-4.2
X4.3Y-4.3
X4.4Y-3.2
X4.4Y-3.3
X4.4Y-3.4
X4.4Y-3.5
X4.4Y-3.6
X4.4Y-3.7
X4.4Y-3.8
X4.4Y-3.9
X4.4Y-4.0
X4.4Y-4.1
X4.4Y-4.2
X4.4Y-4.3
X4.5Y-2.035
X4.5Y-2.135
X4.5Y-2.235
X4.5Y-2.335
X4.5Y-2.435
X4.5Y-2.535
X4.5Y-2.635
X4.5Y-2.735
X4.5Y-2.835
X4.5Y-2.935
X4.5Y-3.2
X4.5Y-3.3
X4.5Y-3.4
X4.5Y-3.5
X4.5Y-3.6
X4.5Y-3.7
X4.5Y-3.8
X4.5Y-3.9
X4.5Y-4.0
X4.5Y-4.1
X4.5Y-4.2
X4.5Y-4.3
X4.6Y-2.035
X4.6Y-2.135
X4.6Y-2.235
X4.6Y-2.335
X4.6Y-2.435
X4.6Y-2.535
X4.6Y-2.635
X4.6Y-2.735
X4.6Y-2.835
X4.6Y-2.935
X4.6Y-3.2
X4.6Y-3.3
X4.6Y-3.4
X4.6Y-3.5
X4.6Y-3.6
X4.6Y-3.7
X4.6Y-3.8
X4.6Y-3.9
X4.6Y-4.0
X4.6Y-4.1
X4.6Y-4.2
X4.6Y-4.3
X4.7Y-2.035
X4.7Y-2.135
X4.7Y-2.235
X4.7Y-2.335
X4.7Y-2.435
X4.7Y-2.535
X4.7Y-2.635
X4.7Y-2.735
X4.7Y-2.835
X4.7Y-2.935
X4.7Y-3.2
X4.7Y-3.3
X4.7Y-3.4
X4.7Y-3.5
X4.7Y-3.6
X4.7Y-3.7
X4.7Y-3.8
X4.7Y-3.9
X4.7Y-4.0
X4.7Y-4.1
X4.7Y-4.2
X4.7Y-4.3
X4.8Y-3.2
X4.8Y-3.3
X4.8Y-3.4
X4.8Y-3.5
X4.8Y-3.6
X4.8Y-3.7
X4.8Y-3.8
X4.8Y-3.9
X4.8Y-4.0
X4.8Y-4.1
X4.8Y-4.2
X4.8Y-4.3
X4.9Y-3.2
X4.9Y-3.3
X4.9Y-3.4
X4.9Y-3.5
X4.9Y-3.6
X4.9Y-3.7
X4.9Y-3.8
X4.9Y-3.9
X4.9Y-4.0
X4.9Y-4.1
X4.9Y-4.2
X4.9Y-4.3
X5.1Y-3.2
X5.1Y-3.3
X5.1Y-3.4
X5.1Y-3.5
X5.1Y-3.6
X5.1Y-3.7
X5.1Y-3.8
X5.1Y-3.9
X5.1Y-4.0
X5.1Y-4.1
X5.1Y-4.2
X5.1Y-4.3
X5.2Y-3.2
X5.2Y-3.3
X5.2Y-3.4
X5.2Y-3.5
X5.2Y-3.6
X5.2Y-3.7
X5.2Y-3.8
X5.2Y-3.9
X5.2Y-4.0
X5.2Y-4.1
X5.2Y-4.2
X5.2Y-4.3
X5.3Y-2.035
X5.3Y-2.135
X5.3Y-2.235
X5.3Y-2.335
X5.3Y-2.435
X5.3Y-2.535
X5.3Y-2.635
X5.3Y-2.735
X5.3Y-2.835
X5.3Y-2.935
X5.3Y-3.2
X5.3Y-3.3
X5.3Y-3.4
X5.3Y-3.5
X5.3Y-3.6
X5.3Y-3.7
X5.3Y-3.8
X5.3Y-3.9
X5.3Y-4.0
X5.3Y-4.1
X5.3Y-4.2
X5.3Y-4.3
X5.4Y-2.035
X5.4Y-2.135
X5.4Y-2.235
X5.4Y-2.335
X5.4Y-2.435
X5.4Y-2.535
X5.4Y-2.635
X5.4Y-2.735
X5.4Y-2.835
X5.4Y-2.935
X5.4Y-3.2
X5.4Y-3.3
X5.4Y-3.4
X5.4Y-3.5
X5.4Y-3.6
X5.4Y-3.7
X5.4Y-3.8
X5.4Y-3.9
X5.4Y-4.0
X5.4Y-4.1
X5.4Y-4.2
X5.4Y-4.3
X5.5Y-2.035
X5.5Y-2.135
X5.5Y-2.235
X5.5Y-2.335
X5.5Y-2.435
X5.5Y-2.535
X5.5Y-2.635
X5.5Y-2.735
X5.5Y-2.835
X5.5Y-2.935
X5.5Y-3.2
X5.5Y-3.3
X5.5Y-3.4
X5.5Y-3.5
X5.5Y-3.6
X5.5Y-3.7
X5.5Y-3.8
X5.5Y-3.9
X5.5Y-4.0
X5.5Y-4.1
X5.5Y-4.2
X5.5Y-4.3
X5.6Y-3.2
X5.6Y-3.3
X5.6Y-3.4
X5.6Y-3.5
X5.6Y-3.6
X5.6Y-3.7
X5.6Y-3.8
X5.6Y-3.9
X5.6Y-4.0
X5.6Y-4.1
X5.6Y-4.2
X5.6Y-4.3
X5.7Y-3.2
X5.7Y-3.3
X5.7Y-3.4
X5.7Y-3.5
X5.7Y-3.6
X5.7Y-3.7
X5.7Y-3.8
X5.7Y-3.9
X5.7Y-4.0
X5.7Y-4.1
X5.7Y-4.2
X5.7Y-4.3
X5.8Y-3.2
X5.8Y-3.3
X5.8Y-3.4
X5.8Y-3.5
X5.8Y-3.6
X5.8Y-3.7
X5.8Y-3.8
X5.8Y-3.9
X5.8Y-4.0
X5.8Y-4.1
X5.8Y-4.2
X5.8Y-4.3
X4.4Y-4.6
X4.4Y-4.7
X3.8Y-3.1
X3.8Y-3.2
X4.0Y-1.7
X4.0Y-1.8
X6.0Y-1.63
X6.0Y-1.73
X6.0Y-1.83
X6.0Y-1.93
X6.0Y-2.03
X6.0Y-2.13
X6.0Y-2.23
X6.0Y-2.33
X6.0Y-2.43
X6.0Y-2.53
X6.0Y-2.63
X6.0Y-2.73
X6.0Y-2.83
X6.0Y-2.93
X5.2Y-4.6
X5.2Y-4.7
X5.6Y-4.6
X5.6Y-4.7
X4.75Y-1.6
X4.85Y-1.6
X4.95Y-1.6
X5.05Y-1.6
X5.15Y-1.6
X5.25Y-1.6
X4.8Y-4.6
X4.8Y-4.7
T5
X3.8428Y-4.82
X3.8428Y-5.0759
X4.02Y-4.82
X4.02Y-5.0759
T0
M30
